<?xml version="1.0" standalone="no"?>
<!DOCTYPE svg PUBLIC "-//W3C//DTD SVG 20010904//EN"
 "http://www.w3.org/TR/2001/REC-SVG-20010904/DTD/svg10.dtd">
<svg version="1.0" xmlns="http://www.w3.org/2000/svg"
 width="537.000000pt" height="537.000000pt" viewBox="0 0 537.000000 537.000000"
 preserveAspectRatio="xMidYMid meet">
<metadata>
Created by potrace 1.11, written by Peter Selinger 2001-2013
</metadata>
<g transform="translate(0.000000,537.000000) scale(0.100000,-0.100000)"
fill="#000000" stroke="none">
<path d="M2169 3756 c-2 -2 -27 -6 -56 -10 -28 -3 -63 -10 -77 -16 -14 -5 -26
-8 -26 -5 0 9 -137 -48 -199 -82 -67 -38 -162 -113 -219 -173 -81 -84 -190
-286 -207 -380 -3 -18 -8 -36 -10 -40 -6 -10 -18 -129 -18 -180 0 -392 244
-731 613 -853 41 -14 90 -28 108 -30 19 -3 36 -8 39 -11 6 -6 -208 0 -272 8
-22 2 -69 8 -105 11 -36 4 -72 8 -80 10 -8 1 -35 6 -60 10 -70 11 -93 14 -120
20 -14 3 -38 8 -55 11 -16 3 -93 21 -170 39 -137 34 -168 43 -310 93 -38 13
-75 25 -81 26 -40 7 -341 136 -494 212 l-185 92 -90 0 -90 0 40 -35 c186 -163
471 -353 730 -485 267 -136 631 -263 900 -313 39 -7 198 -32 250 -39 178 -25
602 -26 755 -2 14 2 43 7 65 10 103 14 126 18 210 36 303 64 514 136 784 267
234 115 517 292 676 425 11 9 52 43 90 75 114 94 143 121 290 268 77 77 185
192 239 255 105 122 331 419 324 425 -2 2 -122 5 -267 6 l-263 2 -27 -34
c-163 -209 -432 -484 -662 -674 -99 -83 -329 -241 -449 -309 -64 -36 -272
-140 -340 -169 -203 -88 -492 -173 -685 -201 -23 -4 -50 -8 -60 -10 -11 -2
-49 -7 -85 -10 l-65 -6 70 23 c178 60 332 171 445 323 67 89 140 255 156 353
l6 40 -52 -20 c-165 -63 -360 20 -437 186 -24 52 -28 72 -28 150 0 79 4 97 29
148 50 104 145 175 261 199 45 9 53 13 46 27 -14 25 -121 126 -179 170 -85 63
-235 131 -324 146 -17 3 -35 8 -41 12 -9 6 -232 14 -238 9z"/>
</g>
</svg>
